<svg xmlns="http://www.w3.org/2000/svg" viewBox="0 0 512 512">
  <defs>
    <linearGradient id="bg" x1="0" y1="0" x2="0" y2="1">
      <stop offset="0" stop-color="#F6F2E7"></stop>
      <stop offset="1" stop-color="#EFEADB"></stop>
    </linearGradient>
    <linearGradient id="coin" x1="0" y1="0" x2="0" y2="1">
      <stop offset="0" stop-color="#F2C75E"></stop>
      <stop offset="1" stop-color="#E0A331"></stop>
    </linearGradient>
  </defs>
  <rect width="512" height="512" rx="112" fill="url(#bg)"></rect>
  <g transform="translate(0,16) scale(8)">
    <g stroke="#E0A331" stroke-width="2" stroke-linecap="round">
      <line x1="32" y1="14.5" x2="32" y2="7"></line>
      <line x1="32" y1="14.5" x2="32" y2="7" transform="rotate(45 32 30)"></line>
      <line x1="32" y1="14.5" x2="32" y2="7" transform="rotate(90 32 30)"></line>
      <line x1="32" y1="14.5" x2="32" y2="7" transform="rotate(135 32 30)"></line>
      <line x1="32" y1="14.5" x2="32" y2="7" transform="rotate(180 32 30)"></line>
      <line x1="32" y1="14.5" x2="32" y2="7" transform="rotate(225 32 30)"></line>
      <line x1="32" y1="14.5" x2="32" y2="7" transform="rotate(270 32 30)"></line>
      <line x1="32" y1="14.5" x2="32" y2="7" transform="rotate(315 32 30)"></line>
    </g>
    <circle cx="32" cy="30" r="13" fill="url(#coin)"></circle>
  </g>
</svg>
